<svg xmlns="http://www.w3.org/2000/svg" viewBox="0 0 100 100">
  <circle cx="50" cy="50" r="48" fill="#F5F1E8" stroke="#8B7355" stroke-width="2"/>
  <ellipse cx="50" cy="50" rx="14" ry="18" fill="#8B7355"/>
  <circle cx="50" cy="35" r="10" fill="#5C4A3A"/>
  <circle cx="45" cy="33" r="2.5" fill="#F5F1E8"/>
  <circle cx="55" cy="33" r="2.5" fill="#F5F1E8"/>
  <circle cx="46" cy="33" r="1.2" fill="#3D2C1F"/>
  <circle cx="54" cy="33" r="1.2" fill="#3D2C1F"/>
  <g stroke="#8B7355" stroke-width="2.5" fill="none" stroke-linecap="round">
    <path d="M 36 42 Q 20 38 15 32"/>
    <path d="M 36 50 Q 18 50 12 50"/>
    <path d="M 36 58 Q 20 62 15 68"/>
  </g>
  <g stroke="#8B7355" stroke-width="2.5" fill="none" stroke-linecap="round">
    <path d="M 64 42 Q 80 38 85 32"/>
    <path d="M 64 50 Q 82 50 88 50"/>
    <path d="M 64 58 Q 80 62 85 68"/>
  </g>
  <g stroke="#D4A5A5" stroke-width="0.8" fill="none" opacity="0.6">
    <line x1="70" y1="20" x2="75" y2="15"/>
    <line x1="75" y1="15" x2="80" y2="20"/>
    <line x1="75" y1="15" x2="75" y2="10"/>
  </g>
</svg>
